<?xml version="1.0" encoding="UTF-8"?>
<svg id="Glyph" xmlns="http://www.w3.org/2000/svg" version="1.1" viewBox="0 0 64 64">
  <path d="M15,12.84998l-7.28991,2.18998c-.55799.16763-.83825.7566-.6501,1.30001l7.94,22.23004V12.84998Z" fill="#000" stroke-width="0"/>
  <path d="M15,52v-7.47003l-4-11.20001v22.67004c0,.54999.45001,1,1,1h32c.54999,0,1-.45001,1-1v-1h-27c-1.65002,0-3-1.35004-3-3Z" fill="#000" stroke-width="0"/>
  <path d="M56.12109,28.10059c-1.16992-1.16992-3.07227-1.16992-4.24219,0l-14.14258,14.14258c-.10938.10938-.19238.24316-.24121.39062l-1.41406,4.24219c-.12012.35938-.02637.7558.24121,1.02338.23596.23602.69812.40393,1.02344.24127l4.24316-1.41406c.14746-.04883.28125-.13184.39062-.24121l14.1416-14.1416c.5664-.56641.87891-1.32031.87891-2.12207,0-.80078-.31251-1.55469-.87891-2.12109Z" fill="#000" stroke-width="0"/>
  <path d="M35.5,28v-6c0-.55176-.44824-1-1-1h-2v8h2c.55176,0,1-.44824,1-1Z" fill="#000" stroke-width="0"/>
  <path d="M42.21997,48.62l-4.23999,1.41998c-1.06525.35522-2.27722.06274-3.07001-.72998-.81-.81-1.08997-1.98004-.72998-3.07001l1.41998-4.23999c.14001-.44.39001-.84003.72003-1.17004l14.14001-14.13995c.16998-.17004.34998-.32001.53998-.46002v-9.22998h-9c-.55273,0-1-.44727-1-1V7h-23c-.54999,0-1,.45001-1,1v44c0,.54999.45001,1,1,1h32c.54999,0,1-.45001,1-1v-11.70001l-7.60999,7.59998c-.33002.33002-.73004.58002-1.17004.72003ZM42,19c1.92969,0,3.5,1.57031,3.5,3.5,0,.55273-.44727,1-1,1s-1-.44727-1-1c0-.82715-.67285-1.5-1.5-1.5s-1.5.67285-1.5,1.5.67285,1.5,1.5,1.5c1.92969,0,3.5,1.57031,3.5,3.5s-1.57031,3.5-3.5,3.5-3.5-1.57031-3.5-3.5c0-.55273.44727-1,1-1s1,.44727,1,1c0,.82715.67285,1.5,1.5,1.5s1.5-.67285,1.5-1.5-.67285-1.5-1.5-1.5c-1.92969,0-3.5-1.57031-3.5-3.5s1.57031-3.5,3.5-3.5ZM22,11h8c.55273,0,1,.44727,1,1s-.44727,1-1,1h-8c-.55273,0-1-.44727-1-1s.44727-1,1-1ZM21,16c0-.55273.44727-1,1-1h16c.55273,0,1,.44727,1,1s-.44727,1-1,1h-16c-.55273,0-1-.44727-1-1ZM29.5,30c0,.55273-.44727,1-1,1s-1-.44727-1-1v-2h-3v2c0,.55273-.44727,1-1,1s-1-.44727-1-1v-7.5c0-1.92969,1.57031-3.5,3.5-3.5s3.5,1.57031,3.5,3.5v7.5ZM30.5,30v-10c0-.55273.44727-1,1-1h3c1.6543,0,3,1.3457,3,3v6c0,1.6543-1.3457,3-3,3h-3c-.55273,0-1-.44727-1-1Z" fill="#000" stroke-width="0"/>
  <path d="M26,21c-.82715,0-1.5.67285-1.5,1.5v3.5h3v-3.5c0-.82715-.67285-1.5-1.5-1.5Z" fill="#000" stroke-width="0"/>
  <polygon points="43 7.57996 43 15 50.42004 15 43 7.57996" fill="#000" stroke-width="0"/>
</svg>