<?xml version="1.0" encoding="UTF-8"?>
<svg id="Glyph" xmlns="http://www.w3.org/2000/svg" version="1.1" viewBox="0 0 64 64">
  <rect x="13" y="50" width="32" height="2" fill="#000" stroke-width="0"/>
  <polygon points="48.82812 44.65723 57 52.8291 57 47.1709 51.65723 41.82812 48.82812 44.65723" fill="#000" stroke-width="0"/>
  <path d="M7,56c0,.55225.44727,1,1,1h48c.55273,0,1-.44775,1-1v-.34277l-10.29297-10.29297c-.39062-.39062-.39062-1.02344,0-1.41406l1.41455-1.41455-1.45215-1.45215c-2.09155,1.7713-4.79144,2.84521-7.74072,2.84521-6.61719,0-12-5.38281-12-12s5.38281-12,12-12,12,5.38281,12,12c0,2.94928-1.07391,5.64917-2.84521,7.74072l1.45215,1.45215,1.41455-1.41455c.39062-.39062,1.02344-.39062,1.41406,0l4.63574,4.63574v-27.34277H7v39ZM19,27c0-.55273.44727-1,1-1h4c.55273,0,1,.44727,1,1s-.44727,1-1,1h-3v3h3c.55273,0,1,.44727,1,1s-.44727,1-1,1h-3v3h3c.55273,0,1,.44727,1,1s-.44727,1-1,1h-4c-.55273,0-1-.44727-1-1v-10ZM14.75,33c-1.79199,0-3.25-1.57031-3.25-3.5s1.45801-3.5,3.25-3.5,3.25,1.57031,3.25,3.5c0,.55273-.44727,1-1,1s-1-.44727-1-1c0-.82715-.56055-1.5-1.25-1.5s-1.25.67285-1.25,1.5.56055,1.5,1.25,1.5c1.79199,0,3.25,1.57031,3.25,3.5s-1.45801,3.5-3.25,3.5-3.25-1.57031-3.25-3.5c0-.55273.44727-1,1-1s1,.44727,1,1c0,.82715.56055,1.5,1.25,1.5s1.25-.67285,1.25-1.5-.56055-1.5-1.25-1.5ZM12,40h11c.55273,0,1,.44727,1,1s-.44727,1-1,1h-11c-.55273,0-1-.44727-1-1s.44727-1,1-1ZM12,44h19c.55273,0,1,.44727,1,1s-.44727,1-1,1H12c-.55273,0-1-.44727-1-1s.44727-1,1-1ZM11,49c0-.55273.44727-1,1-1h34c.55273,0,1,.44727,1,1v4c0,.55273-.44727,1-1,1H12c-.55273,0-1-.44727-1-1v-4Z" fill="#000" stroke-width="0"/>
  <path d="M38.92871,21.92871c-5.51367,0-10,4.48633-10,10s4.48633,10,10,10,10-4.48633,10-10-4.48633-10-10-10ZM44,35c0,2.75684-2.24316,5-5,5s-5-2.24316-5-5v-6c0-2.75684,2.24316-5,5-5s5,2.24316,5,5v6Z" fill="#000" stroke-width="0"/>
  <path d="M39,26c-1.6543,0-3,1.3457-3,3v6c0,1.6543,1.3457,3,3,3s3-1.3457,3-3v-6c0-1.6543-1.3457-3-3-3Z" fill="#000" stroke-width="0"/>
  <path d="M56,7h-15v8h16v-7c0-.55225-.44727-1-1-1ZM45,12c-.55231,0-1-.44775-1-1,0-.55231.44769-1,1-1s1,.44769,1,1c0,.55225-.44769,1-1,1ZM49,12c-.55231,0-1-.44775-1-1,0-.55231.44769-1,1-1s1,.44769,1,1c0,.55225-.44769,1-1,1ZM53,12c-.55231,0-1-.44775-1-1,0-.55231.44769-1,1-1s1,.44769,1,1c0,.55225-.44769,1-1,1Z" fill="#000" stroke-width="0"/>
  <path d="M39,7H8c-.55273,0-1,.44775-1,1v7h32V7ZM23,12h-12c-.55273,0-1-.44775-1-1s.44727-1,1-1h12c.55273,0,1,.44775,1,1s-.44727,1-1,1Z" fill="#000" stroke-width="0"/>
</svg>