<?xml version="1.0" encoding="UTF-8"?>
<svg id="Glyph" xmlns="http://www.w3.org/2000/svg" version="1.1" viewBox="0 0 64 64">
  <polygon points="40 30.61816 40 33.38184 42.76367 32 40 30.61816" fill="#000" stroke-width="0"/>
  <path d="M29,44c0-.55127-.44873-1-1-1h-1v2h1c.55127,0,1-.44873,1-1Z" fill="#000" stroke-width="0"/>
  <rect x="15" y="48" width="2" height="4" fill="#000" stroke-width="0"/>
  <polygon points="25 38.62 19 41.62 19 46.38 25 49.38 25 38.62" fill="#000" stroke-width="0"/>
  <path d="M16,32h9v-10h-12v12l2.3999-1.7998c.17334-.12988.38379-.2002.6001-.2002ZM16,24h6c.55225,0,1,.44775,1,1s-.44775,1-1,1h-6c-.55225,0-1-.44775-1-1s.44775-1,1-1ZM15,29c0-.55225.44775-1,1-1h6c.55225,0,1,.44775,1,1s-.44775,1-1,1h-6c-.55225,0-1-.44775-1-1Z" fill="#000" stroke-width="0"/>
  <path d="M7,56c0,.54999.45001,1,1,1h48c.54999,0,1-.45001,1-1V17H7v39ZM52,54h-20c-.54999,0-1-.45001-1-1s.45001-1,1-1h20c.54999,0,1,.45001,1,1s-.45001,1-1,1ZM31,49c0-.54999.45001-1,1-1h7c.54999,0,1,.45001,1,1s-.45001,1-1,1h-7c-.54999,0-1-.45001-1-1ZM52,50h-9c-.54999,0-1-.45001-1-1s.45001-1,1-1h9c.54999,0,1,.45001,1,1s-.45001,1-1,1ZM41,20c6.62,0,12,5.38,12,12s-5.38,12-12,12-12-5.38-12-12,5.38-12,12-12ZM11,21c0-.54999.45001-1,1-1h14c.54999,0,1,.45001,1,1v12c0,.54999-.45001,1-1,1h-9.66998s-3.73004,2.79999-3.7301,2.80005c-.651.47009-1.59991.01917-1.59991-.80005v-15ZM11,41c0-.54999.45001-1,1-1h5.76001s7.77997-3.89001,7.78998-3.89001c.66003-.33002,1.45001.15997,1.45001.89001v4h1c1.65002,0,3,1.34998,3,3s-1.34998,3-3,3h-1v4c0,.71997-.79999,1.21997-1.45001.89001l-6.54999-3.27002v4.38c0,.54999-.45001,1-1,1h-4c-.54999,0-1-.45001-1-1v-5h-1c-.54999,0-1-.45001-1-1v-6Z" fill="#000" stroke-width="0"/>
  <rect x="13" y="42" width="4" height="4" fill="#000" stroke-width="0"/>
  <path d="M41,42c5.51367,0,10-4.48584,10-10s-4.48633-10-10-10-10,4.48584-10,10,4.48633,10,10,10ZM41,24c4.41113,0,8,3.58887,8,8s-3.58887,8-8,8-8-3.58887-8-8,3.58887-8,8-8Z" fill="#000" stroke-width="0"/>
  <path d="M41,38c3.30859,0,6-2.69141,6-6s-2.69141-6-6-6-6,2.69141-6,6,2.69141,6,6,6ZM38,29c0-.73376.79126-1.21942,1.44727-.89453,0,0,5.98468,2.99231,6,3,.362.18097.54327.5376.5434.89429.00012.35675-.18085.7135-.5434.89478,0,0-5.97998,2.98999-5.99994,2.99994-.65137.32568-1.44733-.1745-1.44733-.89447v-6Z" fill="#000" stroke-width="0"/>
  <path d="M56,7h-15v8h16v-7c0-.55225-.44727-1-1-1ZM45,12c-.55231,0-1-.44775-1-1,0-.55231.44769-1,1-1s1,.44769,1,1c0,.55225-.44769,1-1,1ZM49,12c-.55231,0-1-.44775-1-1,0-.55231.44769-1,1-1s1,.44769,1,1c0,.55225-.44769,1-1,1ZM53,12c-.55231,0-1-.44775-1-1,0-.55231.44769-1,1-1s1,.44769,1,1c0,.55225-.44769,1-1,1Z" fill="#000" stroke-width="0"/>
  <path d="M39,7H8c-.55273,0-1,.44775-1,1v7h32V7ZM23,12h-12c-.55273,0-1-.44775-1-1s.44727-1,1-1h12c.55273,0,1,.44775,1,1s-.44727,1-1,1Z" fill="#000" stroke-width="0"/>
</svg>