<?xml version="1.0" encoding="UTF-8"?>
<svg id="Glyph" xmlns="http://www.w3.org/2000/svg" version="1.1" viewBox="0 0 64 64">
  <rect x="13" y="13" width="4" height="4" fill="#000" stroke-width="0"/>
  <rect x="13" y="25" width="4" height="4" fill="#000" stroke-width="0"/>
  <rect x="13" y="19" width="4" height="4" fill="#000" stroke-width="0"/>
  <rect x="47" y="13" width="4" height="4" fill="#000" stroke-width="0"/>
  <rect x="47" y="19" width="4" height="4" fill="#000" stroke-width="0"/>
  <rect x="47" y="25" width="4" height="4" fill="#000" stroke-width="0"/>
  <path d="M28.41406,35h7.17188l5.10791-5.10791-7.69385-10.77136v5.06354c1.1615.41412,2,1.51379,2,2.81573,0,1.6543-1.3457,3-3,3s-3-1.3457-3-3c0-1.30194.8385-2.40161,2-2.81573v-5.06354l-7.69385,10.77136,5.10791,5.10791Z" fill="#000" stroke-width="0"/>
  <path d="M56,7H8c-.54999,0-1,.45001-1,1v36c0,.54999.45001,1,1,1h48c.54999,0,1-.45001,1-1V8c0-.54999-.45001-1-1-1ZM53,40c0,.54999-.45001,1-1,1H12c-.54999,0-1-.45001-1-1V12c0-.54999.45001-1,1-1h40c.54999,0,1,.45001,1,1v28Z" fill="#000" stroke-width="0"/>
  <path d="M45,30V13h-26v17c0,.54999-.45001,1-1,1h-5v8h11v-3c0-.54999.45001-1,1-1h.59003l-4.30005-4.29004c-.33997-.34998-.38995-.88995-.09998-1.28998l10-14c.01001-.02002.02997-.02002.04999-.03998.17999-.23004.45001-.38.76001-.38s.58002.14996.76001.38c.02002.01996.03998.01996.04999.03998l10,14c.28998.40002.23999.94-.09998,1.28998l-4.30005,4.29004h.59003c.54999,0,1,.45001,1,1v3h11v-8h-5c-.54999,0-1-.45001-1-1Z" fill="#000" stroke-width="0"/>
  <rect x="26" y="37" width="12" height="2" fill="#000" stroke-width="0"/>
  <circle cx="32" cy="27" r="1" fill="#000" stroke-width="0"/>
  <path d="M48,55h-3v-2h-26v2h-3c-.54999,0-1,.45001-1,1s.45001,1,1,1h32c.54999,0,1-.45001,1-1s-.45001-1-1-1Z" fill="#000" stroke-width="0"/>
  <path d="M25.88,47c-.21002,1.40997-.70001,2.76996-1.44,4h15.12c-.73999-1.23004-1.22998-2.59003-1.44-4h-12.23999Z" fill="#000" stroke-width="0"/>
</svg>